<svg width="119" height="35" viewBox="0 0 116 23" fill="none" xmlns="http://www.w3.org/2000/svg">
    <path d="M0.67 22V0.699999H9.67C10.59 0.699999 11.43 0.889999 12.19 1.27C12.95 1.65 13.61 2.17 14.17 2.83C14.75 3.47 15.19 4.19 15.49 4.99C15.81 5.77 15.97 6.57 15.97 7.39C15.97 8.41 15.77 9.37 15.37 10.27C14.99 11.17 14.44 11.93 13.72 12.55C13.02 13.17 12.19 13.58 11.23 13.78L16.45 22H14.08L9.07 14.14H2.77V22H0.67ZM2.77 12.28H9.73C10.57 12.28 11.3 12.05 11.92 11.59C12.54 11.13 13.02 10.53 13.36 9.79C13.7 9.03 13.87 8.23 13.87 7.39C13.87 6.53 13.67 5.74 13.27 5.02C12.89 4.28 12.37 3.69 11.71 3.25C11.07 2.79 10.35 2.56 9.55 2.56H2.77V12.28ZM26.1309 22.3C25.0109 22.3 23.9709 22.09 23.0109 21.67C22.0509 21.23 21.2209 20.64 20.5209 19.9C19.8209 19.14 19.2709 18.27 18.8709 17.29C18.4909 16.31 18.3009 15.26 18.3009 14.14C18.3009 12.68 18.6309 11.34 19.2909 10.12C19.9709 8.9 20.9009 7.93 22.0809 7.21C23.2609 6.47 24.6009 6.1 26.1009 6.1C27.6409 6.1 28.9809 6.47 30.1209 7.21C31.2809 7.95 32.1909 8.93 32.8509 10.15C33.5109 11.35 33.8409 12.67 33.8409 14.11C33.8409 14.27 33.8409 14.43 33.8409 14.59C33.8409 14.73 33.8309 14.84 33.8109 14.92H20.4309C20.5309 16.04 20.8409 17.04 21.3609 17.92C21.9009 18.78 22.5909 19.47 23.4309 19.99C24.2909 20.49 25.2209 20.74 26.2209 20.74C27.2409 20.74 28.2009 20.48 29.1009 19.96C30.0209 19.44 30.6609 18.76 31.0209 17.92L32.7909 18.4C32.4709 19.14 31.9809 19.81 31.3209 20.41C30.6609 21.01 29.8809 21.48 28.9809 21.82C28.1009 22.14 27.1509 22.3 26.1309 22.3ZM20.3709 13.45H31.9209C31.8409 12.31 31.5309 11.31 30.9909 10.45C30.4709 9.59 29.7809 8.92 28.9209 8.44C28.0809 7.94 27.1509 7.69 26.1309 7.69C25.1109 7.69 24.1809 7.94 23.3409 8.44C22.5009 8.92 21.8109 9.6 21.2709 10.48C20.7509 11.34 20.4509 12.33 20.3709 13.45ZM35.7283 17.5C35.7283 16.52 36.0083 15.68 36.5683 14.98C37.1283 14.26 37.8983 13.71 38.8783 13.33C39.8783 12.93 41.0283 12.73 42.3283 12.73C43.0883 12.73 43.8783 12.79 44.6983 12.91C45.5183 13.03 46.2483 13.21 46.8883 13.45V12.13C46.8883 10.81 46.4983 9.76 45.7183 8.98C44.9383 8.2 43.8583 7.81 42.4783 7.81C41.6383 7.81 40.8083 7.97 39.9883 8.29C39.1883 8.59 38.3483 9.04 37.4683 9.64L36.6883 8.2C37.7083 7.5 38.7083 6.98 39.6883 6.64C40.6683 6.28 41.6683 6.1 42.6883 6.1C44.6083 6.1 46.1283 6.65 47.2483 7.75C48.3683 8.85 48.9283 10.37 48.9283 12.31V19.54C48.9283 19.82 48.9883 20.03 49.1083 20.17C49.2283 20.29 49.4183 20.36 49.6783 20.38V22C49.4583 22.02 49.2683 22.04 49.1083 22.06C48.9483 22.08 48.8283 22.08 48.7483 22.06C48.2483 22.04 47.8683 21.88 47.6083 21.58C47.3483 21.28 47.2083 20.96 47.1883 20.62L47.1583 19.48C46.4583 20.38 45.5483 21.08 44.4283 21.58C43.3083 22.06 42.1683 22.3 41.0083 22.3C40.0083 22.3 39.0983 22.09 38.2783 21.67C37.4783 21.23 36.8483 20.65 36.3883 19.93C35.9483 19.19 35.7283 18.38 35.7283 17.5ZM46.1983 18.7C46.4183 18.42 46.5883 18.15 46.7083 17.89C46.8283 17.63 46.8883 17.4 46.8883 17.2V14.92C46.2083 14.66 45.4983 14.46 44.7583 14.32C44.0383 14.18 43.3083 14.11 42.5683 14.11C41.1083 14.11 39.9283 14.4 39.0283 14.98C38.1283 15.56 37.6783 16.35 37.6783 17.35C37.6783 17.93 37.8283 18.48 38.1283 19C38.4283 19.5 38.8683 19.92 39.4483 20.26C40.0283 20.58 40.7083 20.74 41.4883 20.74C42.4683 20.74 43.3783 20.55 44.2183 20.17C45.0783 19.79 45.7383 19.3 46.1983 18.7ZM53.4259 0.0999994H55.4659V18.46C55.4659 19.24 55.6059 19.75 55.8859 19.99C56.1659 20.23 56.5059 20.35 56.9059 20.35C57.2659 20.35 57.6259 20.31 57.9859 20.23C58.3459 20.15 58.6559 20.07 58.9159 19.99L59.2759 21.64C58.8959 21.8 58.4259 21.93 57.8659 22.03C57.3259 22.13 56.8559 22.18 56.4559 22.18C55.5359 22.18 54.7959 21.91 54.2359 21.37C53.6959 20.83 53.4259 20.09 53.4259 19.15V0.0999994Z" fill="#333333"/>
    <path d="M63.6698 0.699999L69.4298 17.08L75.1298 0.699999H79.4798L71.4098 22H67.4198L59.3198 0.699999H63.6698ZM81.7532 22V0.699999H90.7832C91.7632 0.699999 92.6632 0.899999 93.4832 1.3C94.3032 1.7 95.0132 2.24 95.6132 2.92C96.2332 3.6 96.7132 4.36 97.0532 5.2C97.3932 6.04 97.5632 6.9 97.5632 7.78C97.5632 8.98 97.2832 10.12 96.7232 11.2C96.1632 12.28 95.3932 13.16 94.4132 13.84C93.4332 14.52 92.2732 14.86 90.9332 14.86H85.8932V22H81.7532ZM85.8932 11.23H90.6932C91.1932 11.23 91.6432 11.09 92.0432 10.81C92.4432 10.53 92.7632 10.13 93.0032 9.61C93.2432 9.07 93.3632 8.46 93.3632 7.78C93.3632 7.04 93.2232 6.41 92.9432 5.89C92.6832 5.37 92.3332 4.98 91.8932 4.72C91.4732 4.46 91.0132 4.33 90.5132 4.33H85.8932V11.23ZM113.135 6.28C112.995 6.14 112.735 5.95 112.355 5.71C111.995 5.47 111.545 5.24 111.005 5.02C110.485 4.8 109.915 4.61 109.295 4.45C108.675 4.27 108.045 4.18 107.405 4.18C106.285 4.18 105.435 4.39 104.855 4.81C104.295 5.23 104.015 5.82 104.015 6.58C104.015 7.16 104.195 7.62 104.555 7.96C104.915 8.3 105.455 8.59 106.175 8.83C106.895 9.07 107.795 9.33 108.875 9.61C110.275 9.95 111.485 10.37 112.505 10.87C113.545 11.35 114.335 11.99 114.875 12.79C115.435 13.57 115.715 14.61 115.715 15.91C115.715 17.05 115.505 18.03 115.085 18.85C114.665 19.65 114.085 20.3 113.345 20.8C112.605 21.3 111.765 21.67 110.825 21.91C109.885 22.13 108.885 22.24 107.825 22.24C106.765 22.24 105.705 22.13 104.645 21.91C103.585 21.69 102.565 21.38 101.585 20.98C100.605 20.56 99.7046 20.06 98.8846 19.48L100.715 15.91C100.895 16.09 101.215 16.33 101.675 16.63C102.135 16.91 102.695 17.2 103.355 17.5C104.015 17.78 104.735 18.02 105.515 18.22C106.295 18.42 107.085 18.52 107.885 18.52C109.005 18.52 109.855 18.33 110.435 17.95C111.015 17.57 111.305 17.03 111.305 16.33C111.305 15.69 111.075 15.19 110.615 14.83C110.155 14.47 109.515 14.16 108.695 13.9C107.875 13.62 106.905 13.32 105.785 13C104.445 12.62 103.325 12.2 102.425 11.74C101.525 11.26 100.855 10.66 100.415 9.94C99.9746 9.22 99.7546 8.32 99.7546 7.24C99.7546 5.78 100.095 4.56 100.775 3.58C101.475 2.58 102.415 1.83 103.595 1.33C104.775 0.809999 106.085 0.549999 107.525 0.549999C108.525 0.549999 109.465 0.659999 110.345 0.879998C111.245 1.1 112.085 1.39 112.865 1.75C113.645 2.11 114.345 2.5 114.965 2.92L113.135 6.28Z" fill="#528DFF"/>
</svg>
