<svg xmlns="http://www.w3.org/2000/svg" width="24" height="24" viewBox="0 0 24 24" fill="none">
    <g clip-path="url(#clip0_6_2250)">
        <path d="M6.75 5.71641C6.16172 5.87579 5.68828 6.33282 5.50313 6.91641L5.44922 7.08985V12.1875V17.2852L5.50313 17.4609C5.70703 18.1125 6.25781 18.5953 6.91406 18.6914C7.07109 18.7149 8.175 18.7219 12.0586 18.7172L17.0039 18.7125L17.1844 18.6633C17.782 18.4969 18.2344 18.0492 18.4266 17.4375L18.4805 17.2617V12.1992C18.4805 6.48985 18.4992 7.03595 18.2906 6.61407C18.1008 6.22266 17.7164 5.89454 17.2805 5.74688L17.0977 5.6836L12 5.67891C7.19766 5.67423 6.89297 5.67657 6.75 5.71641ZM17.0273 6.26954C17.4141 6.37032 17.7211 6.6586 17.8641 7.05704L17.918 7.20704V12.1641C17.918 16.2703 17.9133 17.1422 17.8852 17.25C17.7867 17.6508 17.4117 18.0234 17.0156 18.1149C16.9453 18.1313 15.2906 18.1406 11.9648 18.1406C6.54609 18.1406 6.89062 18.15 6.62344 18.0047C6.34922 17.8547 6.12656 17.5664 6.04219 17.25C6.00469 17.1094 6.00234 16.7391 6.00234 12.2227C6 9.16173 6.00938 7.2961 6.02344 7.20704C6.09375 6.77345 6.46641 6.37501 6.90234 6.2672C6.99375 6.24376 8.11875 6.23907 11.9531 6.23673C16.3148 6.23438 16.9055 6.23907 17.0273 6.26954Z" fill="#15406B"/>
        <path d="M7.87745 7.20937C7.5587 7.29375 7.22589 7.56562 7.08526 7.85156C6.92823 8.17265 6.93761 7.87968 6.93761 12.1992C6.93761 15.5461 6.94229 16.132 6.97276 16.2422C7.1087 16.7555 7.54698 17.1422 8.06261 17.2031C8.19386 17.2195 9.57667 17.2266 12.0939 17.2219L15.9259 17.2148L16.0782 17.1633C16.4907 17.0227 16.7696 16.7531 16.9173 16.3523L16.9806 16.1836L16.9876 12.2812C16.9923 9.51328 16.9853 8.33437 16.9689 8.22187C16.8892 7.74375 16.5071 7.33359 16.0196 7.20468C15.8368 7.15546 8.05792 7.16015 7.87745 7.20937ZM15.8954 7.4789C16.1931 7.54218 16.4626 7.75547 16.6009 8.03672L16.6759 8.1914V12.1875V16.1836L16.6009 16.3383C16.5048 16.5328 16.3759 16.6781 16.2165 16.7742C15.954 16.9312 16.2165 16.9242 11.8923 16.9172L7.98058 16.9102L7.79776 16.8187C7.49308 16.6664 7.2962 16.4039 7.24464 16.0758C7.21183 15.8789 7.20948 8.50781 7.24229 8.31093C7.30792 7.90547 7.63604 7.5539 8.01573 7.4789C8.17979 7.44609 15.7431 7.44843 15.8954 7.4789Z" fill="#15406B"/>
        <path d="M8.23837 8.54062C8.20556 8.58984 8.20087 8.68359 8.2079 9.19922C8.21493 9.76406 8.21727 9.80391 8.25946 9.83437C8.29696 9.86016 8.42587 9.86719 8.91102 9.86719C9.48524 9.86719 9.51806 9.86484 9.56259 9.82031C9.60712 9.77578 9.60946 9.74297 9.60946 9.18047C9.60946 8.68359 9.60477 8.58047 9.57196 8.53594C9.53681 8.48438 9.53212 8.48438 8.90634 8.48438H8.27352L8.23837 8.54062ZM9.30477 9.16406V9.5625H8.90634H8.5079V9.16406V8.76562H8.90634H9.30477V9.16406Z" fill="#15406B"/>
        <path d="M10.2797 8.53594C10.2469 8.58047 10.2422 8.68359 10.2422 9.18047C10.2422 9.74297 10.2445 9.77578 10.2891 9.82031C10.3336 9.86484 10.3664 9.86719 10.9406 9.86719C11.4258 9.86719 11.5547 9.86016 11.5922 9.83437C11.6344 9.80391 11.6367 9.76406 11.6438 9.20156C11.6508 8.67656 11.6461 8.59687 11.6109 8.54297L11.5734 8.48438H10.943C10.3219 8.48438 10.3148 8.48438 10.2797 8.53594ZM11.3438 9.16406V9.5625H10.9453H10.5469V9.16406V8.76562H10.9453H11.3438V9.16406Z" fill="#15406B"/>
        <path d="M12.3165 8.54062C12.2837 8.58984 12.279 8.68359 12.286 9.19922C12.2931 9.76406 12.2954 9.80391 12.3376 9.83437C12.3751 9.86016 12.504 9.86719 12.9845 9.86719C13.5657 9.86719 13.5891 9.86484 13.6313 9.81797C13.6735 9.77109 13.6759 9.72656 13.6759 9.16406C13.6759 8.68828 13.6688 8.55469 13.6431 8.52422C13.6149 8.48906 13.5399 8.48438 12.9821 8.48438H12.3516L12.3165 8.54062ZM13.3829 9.16406V9.5625H12.9845H12.586V9.16406V8.76562H12.9845H13.3829V9.16406Z" fill="#15406B"/>
        <path d="M14.3602 8.52656C14.325 8.56406 14.3203 8.64609 14.3203 9.18047C14.3203 9.74062 14.3227 9.79219 14.3625 9.82734C14.4 9.8625 14.482 9.86719 15.0164 9.86719C15.5766 9.86719 15.6281 9.86484 15.6633 9.825C15.6984 9.7875 15.7031 9.70547 15.7031 9.16875C15.7031 8.64375 15.6984 8.55234 15.6656 8.52187C15.6352 8.48906 15.5414 8.48438 15.0141 8.48438C14.4469 8.48438 14.3953 8.48672 14.3602 8.52656ZM15.4219 9.16406V9.5625H15.0234H14.625V9.16406V8.76562H15.0234H15.4219V9.16406Z" fill="#15406B"/>
        <path d="M8.30156 10.5C8.27344 10.5117 8.23828 10.5492 8.22656 10.582C8.2125 10.6172 8.20312 10.8938 8.20312 11.2055V11.768L8.26172 11.8242L8.31797 11.8828H8.91797C9.48516 11.8828 9.51797 11.8805 9.5625 11.8359C9.60703 11.7914 9.60938 11.7586 9.60938 11.1938C9.60938 10.643 9.60703 10.5938 9.56484 10.5445C9.52031 10.4883 9.51797 10.4883 8.93672 10.4836C8.61797 10.4813 8.33203 10.4883 8.30156 10.5ZM9.30469 11.1797V11.5781H8.90625H8.50781V11.1797V10.7813H8.90625H9.30469V11.1797Z" fill="#15406B"/>
        <path d="M10.343 10.5C10.2469 10.5398 10.2398 10.5891 10.2469 11.2172C10.2539 11.7797 10.2562 11.8195 10.2984 11.85C10.3359 11.8758 10.4625 11.8828 10.9359 11.8828C11.482 11.8828 11.5312 11.8805 11.5805 11.8383C11.6367 11.7938 11.6367 11.7914 11.6437 11.1984C11.6508 10.6359 11.6484 10.5984 11.6039 10.5445L11.5594 10.4883L10.9758 10.4836C10.657 10.4813 10.3711 10.4883 10.343 10.5ZM11.3437 11.1797V11.5781H10.9453H10.5469V11.1797V10.7813H10.9453H11.3437V11.1797Z" fill="#15406B"/>
        <path d="M12.3984 10.493C12.2812 10.5375 12.2812 10.5375 12.2812 11.1844C12.2812 11.7586 12.2836 11.7914 12.3281 11.8359C12.3727 11.8805 12.4055 11.8828 12.9703 11.8828C13.5211 11.8828 13.5703 11.8805 13.6195 11.8383L13.6758 11.7937V11.182C13.6758 10.6289 13.6711 10.568 13.6336 10.5305C13.5961 10.493 13.5352 10.4883 13.0125 10.4836C12.6938 10.4812 12.4172 10.4859 12.3984 10.493ZM13.3828 11.1797V11.5781H12.9844H12.5859V11.1797V10.7812H12.9844H13.3828V11.1797Z" fill="#15406B"/>
        <path d="M14.4023 10.5047C14.3766 10.5187 14.3484 10.5422 14.3391 10.5562C14.3297 10.5703 14.3203 10.8539 14.3203 11.1844C14.3203 11.775 14.3203 11.7891 14.3719 11.8359C14.4211 11.8805 14.4516 11.8828 15.0117 11.8828C15.5063 11.8828 15.607 11.8781 15.6516 11.8453C15.7031 11.8102 15.7031 11.8031 15.7031 11.1961C15.7008 10.6852 15.6961 10.575 15.6656 10.5352C15.6328 10.4906 15.6 10.4883 15.0398 10.4836C14.625 10.4789 14.4352 10.4859 14.4023 10.5047ZM15.4219 11.1797V11.5781H15.0234H14.625V11.1797V10.7812H15.0234H15.4219V11.1797Z" fill="#15406B"/>
        <path d="M8.26162 12.5508L8.20068 12.6094L8.20771 13.2094C8.21475 13.807 8.21475 13.8094 8.271 13.8539C8.32021 13.8961 8.36943 13.8984 8.91084 13.8984H9.49443L9.55068 13.8398L9.60928 13.7836V13.2C9.60928 12.6586 9.60693 12.6094 9.56475 12.5602C9.52021 12.5039 9.51787 12.5039 8.92021 12.4969L8.32021 12.4898L8.26162 12.5508ZM9.30459 13.1953V13.5938H8.90615H8.50771V13.1953V12.7969H8.90615H9.30459V13.1953Z" fill="#15406B"/>
        <path d="M10.3008 12.5508L10.2422 12.607V13.1953V13.7836L10.3008 13.8398L10.357 13.8984H10.9453H11.5336L11.5898 13.8398L11.6484 13.7836V13.1953V12.607L11.5898 12.5508L11.5336 12.4922H10.9453H10.357L10.3008 12.5508ZM11.3438 13.1953V13.5938H10.9453H10.5469V13.1953V12.7969H10.9453H11.3438V13.1953Z" fill="#15406B"/>
        <path d="M12.3398 12.5508L12.2812 12.607V13.2047V13.8023L12.3422 13.8492C12.4008 13.8961 12.4336 13.8984 12.9844 13.8984C13.5211 13.8984 13.5703 13.8961 13.6195 13.8539L13.6758 13.8094V13.1953V12.5812L13.6195 12.5367C13.5703 12.4945 13.5211 12.4922 12.9797 12.4922H12.3961L12.3398 12.5508ZM13.3828 13.1953V13.5938H12.9844H12.5859V13.1953V12.7969H12.9844H13.3828V13.1953Z" fill="#15406B"/>
        <path d="M14.3719 12.5391C14.3203 12.5859 14.3203 12.6 14.3203 13.1953C14.3203 13.7742 14.3227 13.807 14.3672 13.8516C14.4117 13.8961 14.4445 13.8984 15.007 13.8984C15.5039 13.8984 15.607 13.8937 15.6516 13.8609C15.7031 13.8258 15.7031 13.8211 15.7031 13.1953V12.5648L15.6328 12.5273C15.5766 12.4992 15.4594 12.4922 14.993 12.4922C14.4516 12.4922 14.4211 12.4945 14.3719 12.5391ZM15.4219 13.1953V13.5938H15.0234H14.625V13.1953V12.7969H15.0234H15.4219V13.1953Z" fill="#15406B"/>
        <path d="M8.26172 14.5664L8.20312 14.6227V15.2109V15.7992L8.26172 15.8555L8.31797 15.9141H8.90625H9.49453L9.55078 15.8555L9.60938 15.7992V15.2156C9.60938 14.6602 9.60703 14.6273 9.56016 14.5687L9.51328 14.5078H8.91563H8.31797L8.26172 14.5664ZM9.30469 15.2109V15.6094H8.90625H8.50781V15.2109V14.8125H8.90625H9.30469V15.2109Z" fill="#15406B"/>
        <path d="M10.3008 14.5664L10.2422 14.6227V15.2109V15.7992L10.3008 15.8555L10.357 15.9141H10.9453H11.5336L11.5898 15.8555L11.6484 15.7992V15.2109V14.6227L11.5898 14.5664L11.5336 14.5078H10.9453H10.357L10.3008 14.5664ZM11.3438 15.2109V15.6094H10.9453H10.5469V15.2109V14.8125H10.9453H11.3438V15.2109Z" fill="#15406B"/>
        <path d="M12.3633 14.5359C12.3375 14.55 12.3094 14.5734 12.3 14.5875C12.2906 14.6016 12.2812 14.8852 12.2812 15.2156V15.818L12.3422 15.8648C12.4008 15.9117 12.4336 15.9141 12.9656 15.9141C13.5984 15.9141 13.6523 15.9023 13.6734 15.7664C13.6805 15.7266 13.6852 15.4453 13.6805 15.1453C13.6758 14.6016 13.6758 14.5969 13.6195 14.5523C13.5703 14.5102 13.5211 14.5078 12.9867 14.5078C12.6023 14.5102 12.3938 14.5172 12.3633 14.5359ZM13.3828 15.2109V15.6094H12.9844H12.5859V15.2109V14.8125H12.9844H13.3828V15.2109Z" fill="#15406B"/>
        <path d="M14.3672 14.5547C14.3227 14.5992 14.3203 14.632 14.3203 15.2062C14.3203 15.6914 14.3273 15.8203 14.3531 15.8578C14.3859 15.9 14.4211 15.9023 15.0117 15.9023C15.6023 15.9023 15.6375 15.9 15.6703 15.8578C15.6961 15.8203 15.7031 15.6914 15.7031 15.1969C15.7031 14.5875 15.7031 14.5805 15.6516 14.5453C15.607 14.5125 15.5039 14.5078 15.007 14.5078C14.4445 14.5078 14.4117 14.5102 14.3672 14.5547ZM15.4219 15.2109V15.6094H15.0234H14.625V15.2109V14.8125H15.0234H15.4219V15.2109Z" fill="#15406B"/>
        <path d="M12.7852 0.0398436C12.682 0.09375 12.6117 0.164062 12.5625 0.260156C12.5203 0.342187 12.5133 0.344531 12.3633 0.35625C11.9859 0.386719 11.6883 0.672656 11.625 1.07109C11.6109 1.15078 11.6016 2.13516 11.6016 3.43828V5.67188H11.7539H11.9062V3.39609C11.9062 1.73437 11.9133 1.09453 11.9344 1.02891C11.993 0.832031 12.2016 0.665625 12.4172 0.642187C12.5273 0.630468 12.5273 0.630468 12.5742 0.728906C12.6 0.782812 12.6656 0.857812 12.7242 0.9C12.8156 0.965625 12.8414 0.972656 13.0055 0.972656C13.2164 0.972656 13.3148 0.925781 13.4203 0.76875C13.4789 0.679688 13.4883 0.646875 13.4883 0.489843C13.4883 0.323437 13.4813 0.3 13.4156 0.208593C13.3125 0.0656247 13.1789 0 12.9984 0C12.9141 0.00234365 12.825 0.0164061 12.7852 0.0398436ZM13.0992 0.316406C13.2445 0.389062 13.2375 0.597656 13.0898 0.665625C12.9844 0.717187 12.8977 0.69375 12.8414 0.6C12.7711 0.4875 12.8109 0.349218 12.9258 0.304688C12.9938 0.274219 13.0266 0.276562 13.0992 0.316406Z" fill="#528DFF"/>
        <path d="M14.9649 1.35469C14.4844 1.57969 14.6438 2.30625 15.1735 2.30156C15.3727 2.29922 15.5695 2.17031 15.6352 1.99922C15.6539 1.95 15.6656 1.94766 15.7664 1.96172C15.961 1.98516 16.1227 2.09297 16.2117 2.25234C16.2516 2.32734 16.2539 2.43047 16.261 4.00078L16.268 5.67188H16.4203H16.5727L16.5656 3.98906L16.5586 2.30859L16.486 2.15625C16.3547 1.87969 16.0945 1.69453 15.8016 1.67109C15.661 1.65703 15.6539 1.65469 15.6024 1.56328C15.5203 1.41328 15.382 1.32891 15.2039 1.31953C15.0985 1.3125 15.0328 1.32188 14.9649 1.35469ZM15.3235 1.68047C15.3961 1.76016 15.3914 1.86328 15.307 1.94766C15.2297 2.02266 15.1711 2.03203 15.0727 1.98047C14.9203 1.90313 14.9508 1.66875 15.1172 1.61016C15.1781 1.58906 15.2672 1.61953 15.3235 1.68047Z" fill="#528DFF"/>
        <path d="M9.43125 1.54219C9.32109 1.59375 9.225 1.68984 9.18516 1.78594C9.16641 1.83281 9.11484 1.87266 9.01406 1.91953C8.76797 2.03906 8.59219 2.25469 8.53125 2.5125C8.51719 2.57344 8.50781 3.21797 8.50781 4.14141V5.67188H8.66016H8.8125V4.11797V2.56406L8.87109 2.44453C8.92734 2.33203 9.03047 2.23125 9.12187 2.19609C9.14766 2.18672 9.17812 2.21016 9.22031 2.27344C9.31172 2.41172 9.46406 2.49141 9.63281 2.48906C9.84375 2.48672 9.99375 2.39297 10.0898 2.20547C10.1531 2.07891 10.132 1.8375 10.0453 1.71328C9.95156 1.57734 9.84609 1.51875 9.67266 1.50703C9.5625 1.5 9.50391 1.50938 9.43125 1.54219ZM9.76641 1.84219C9.84375 1.89141 9.8625 2.02734 9.80391 2.10469C9.70781 2.23359 9.54609 2.23125 9.46641 2.10234C9.41719 2.02031 9.42422 1.93828 9.4875 1.86563C9.56719 1.77891 9.65391 1.77188 9.76641 1.84219Z" fill="#528DFF"/>
        <path d="M7.61726 2.8125C7.30319 2.86875 7.11335 3.20156 7.23288 3.4875C7.27507 3.59297 7.38991 3.71484 7.47897 3.75234L7.54694 3.77813V4.725V5.67188H7.69929H7.85163L7.85397 4.72734V3.78516L7.96413 3.71484C8.15866 3.59063 8.24069 3.36094 8.17038 3.14531C8.09304 2.91797 7.85163 2.77266 7.61726 2.8125ZM7.83054 3.16172C7.91491 3.24844 7.9196 3.34688 7.84226 3.43594C7.72507 3.57188 7.50007 3.48516 7.50007 3.30703C7.50241 3.11484 7.69694 3.02813 7.83054 3.16172Z" fill="#528DFF"/>
        <path d="M10.1906 2.84531C10.057 2.89219 9.99141 2.94375 9.91875 3.05156C9.86484 3.13594 9.85547 3.17344 9.85547 3.31641C9.85547 3.46172 9.86484 3.49688 9.92109 3.58359C9.95859 3.6375 10.0336 3.7125 10.0898 3.74531L10.193 3.80859L10.1953 4.73906V5.67188H10.3477H10.5V4.73672V3.80156L10.6055 3.74063C10.9031 3.56484 10.9219 3.1125 10.6406 2.91797C10.4883 2.8125 10.3453 2.78906 10.1906 2.84531ZM10.4414 3.13125C10.4883 3.15 10.5469 3.2625 10.5469 3.33516C10.5469 3.42188 10.4461 3.51563 10.3523 3.51563C10.2305 3.51563 10.1484 3.44063 10.1484 3.32578C10.1484 3.16875 10.2914 3.075 10.4414 3.13125Z" fill="#528DFF"/>
        <path d="M13.6336 3.46875C13.5305 3.49922 13.4109 3.60234 13.3594 3.70547C13.3148 3.7875 13.3031 3.79688 13.2188 3.79688C13.0477 3.79688 12.8273 3.88828 12.6867 4.01484C12.4359 4.24688 12.3984 4.38281 12.3984 5.11406V5.67188H12.5508H12.7031V5.09766C12.7031 4.4625 12.7125 4.41563 12.8508 4.26797C12.9469 4.16719 13.0875 4.10156 13.2117 4.10156C13.2914 4.10156 13.3172 4.11094 13.3383 4.15313C13.3945 4.26563 13.5352 4.38516 13.65 4.41797C13.9477 4.50703 14.2453 4.31484 14.2875 4.00547C14.3367 3.64453 13.9898 3.36094 13.6336 3.46875ZM13.9383 3.80156C13.9922 3.85078 14.0086 3.95859 13.9781 4.04297C13.9594 4.08984 13.8469 4.14844 13.7719 4.14844C13.6969 4.14844 13.5938 4.02656 13.5938 3.93516C13.5938 3.77344 13.8164 3.68672 13.9383 3.80156Z" fill="#528DFF"/>
        <path d="M15.0399 4.01484C14.6696 4.12969 14.5735 4.61016 14.8688 4.87031C14.9134 4.90781 14.972 4.94766 14.9977 4.95703C15.0446 4.97109 15.047 4.98984 15.047 5.32266V5.67188H15.1876H15.3282V5.32266V4.97344L15.3985 4.94531C15.4782 4.9125 15.6259 4.75781 15.6563 4.67344C15.6962 4.57266 15.6845 4.36641 15.6329 4.26797C15.572 4.14844 15.4407 4.04062 15.3141 4.01016C15.1923 3.97969 15.1548 3.97969 15.0399 4.01484ZM15.3141 4.34062C15.4079 4.42266 15.4149 4.52344 15.3399 4.6125C15.2368 4.73672 15.0563 4.70859 15.0001 4.56094C14.9696 4.47656 14.993 4.39219 15.0634 4.33594C15.143 4.275 15.2415 4.27734 15.3141 4.34062Z" fill="#528DFF"/>
        <path d="M2.95549 6.67031C2.66018 6.81797 2.58986 7.19766 2.81721 7.44375C2.86877 7.5 2.94377 7.55625 2.98361 7.56797C3.04689 7.58906 3.06799 7.61484 3.10314 7.71563C3.16408 7.88672 3.38439 8.10469 3.56955 8.175C3.70314 8.22422 3.7383 8.22656 4.57268 8.22656H5.43752V8.08594V7.94766L4.58908 7.94063L3.7383 7.93359L3.61643 7.86563C3.50393 7.80469 3.37502 7.66172 3.37502 7.60078C3.37502 7.58672 3.41018 7.55391 3.45471 7.52813C3.72189 7.36875 3.75471 6.95625 3.51564 6.74063C3.35627 6.59766 3.15471 6.57188 2.95549 6.67031ZM3.31408 6.96328C3.39846 7.02891 3.4008 7.17188 3.31643 7.25391C3.22268 7.35 3.05158 7.31719 3.00002 7.19297C2.91799 6.99609 3.14533 6.82969 3.31408 6.96328Z" fill="#528DFF"/>
        <path d="M19.3828 7.51406C19.2773 7.56093 19.2023 7.63125 19.1461 7.73906L19.1016 7.82812H18.7969H18.4922V7.97578V8.12578L18.7992 8.12343L19.1062 8.12109L19.1367 8.19375C19.1789 8.29453 19.343 8.42812 19.4648 8.45859C19.6687 8.51015 19.9008 8.4164 20.0039 8.24062C20.2078 7.89375 19.9758 7.47656 19.582 7.4789C19.5187 7.4789 19.4273 7.49531 19.3828 7.51406ZM19.7297 7.83515C19.7812 7.88203 19.7977 7.98984 19.7672 8.07421C19.7484 8.11875 19.6383 8.17968 19.5703 8.17968C19.5422 8.17968 19.4883 8.14921 19.4508 8.11171C19.3406 8.00156 19.3664 7.85156 19.5047 7.79296C19.5914 7.75781 19.657 7.76953 19.7297 7.83515Z" fill="#528DFF"/>
        <path d="M0.740683 7.83044C0.623496 7.85857 0.508652 7.94529 0.428965 8.06482C0.34459 8.19138 0.339902 8.40232 0.417246 8.54998C0.468808 8.64841 0.632871 8.78904 0.696152 8.78904C0.712558 8.78904 0.73834 8.81716 0.752402 8.85232C0.843808 9.1031 1.01725 9.2906 1.24225 9.38201L1.37115 9.43357L3.40553 9.4406L5.43756 9.44763V9.29294V9.1406H3.45475C2.01568 9.1406 1.44615 9.13357 1.38053 9.11248C1.26568 9.07966 1.11803 8.9531 1.07818 8.85701C1.05006 8.79373 1.0524 8.78201 1.08521 8.76326C1.17896 8.70935 1.26568 8.6156 1.31256 8.51482C1.48365 8.14919 1.13678 7.73435 0.740683 7.83044ZM0.958652 8.14451C1.06646 8.19841 1.0899 8.33904 1.00787 8.44451C0.946933 8.52185 0.860215 8.5406 0.773496 8.49607C0.618808 8.41638 0.611777 8.22419 0.761777 8.13748C0.825058 8.10232 0.881308 8.10232 0.958652 8.14451Z" fill="#528DFF"/>
        <path d="M21.3633 7.91484C21.0258 8.09297 20.9859 8.55469 21.293 8.77031C21.3914 8.84062 21.3937 8.84531 21.3633 8.90391C21.3469 8.93672 21.2977 8.99766 21.2531 9.03984C21.0961 9.18984 21.1289 9.1875 19.7461 9.1875H18.4922V9.33984V9.49219H19.7297C20.4586 9.49219 21.007 9.48047 21.0656 9.46875C21.3258 9.40781 21.5391 9.23438 21.6562 8.98594C21.7031 8.88516 21.7406 8.83828 21.7781 8.82656C21.8578 8.80781 21.9844 8.67891 22.0336 8.56875C22.1461 8.32266 22.0289 8.01094 21.7852 7.91016C21.6797 7.86328 21.4523 7.86797 21.3633 7.91484ZM21.6773 8.19141C21.8602 8.28516 21.7805 8.56406 21.5695 8.56406C21.4148 8.56406 21.3234 8.38125 21.4125 8.25469C21.4781 8.15859 21.5742 8.1375 21.6773 8.19141Z" fill="#528DFF"/>
        <path d="M21.4805 9.81796C21.3797 9.8625 21.2109 10.0336 21.2109 10.0898C21.2109 10.1203 21.0422 10.125 19.8516 10.125H18.4922V10.275V10.4227H19.8445C20.7844 10.4227 21.1992 10.432 21.2062 10.4484C21.2109 10.4625 21.2437 10.5164 21.2812 10.568C21.4992 10.868 21.9633 10.8211 22.1344 10.4836C22.1883 10.3758 22.1836 10.1625 22.125 10.0406C22.0148 9.81796 21.7125 9.71249 21.4805 9.81796ZM21.7852 10.0922C21.8039 10.1016 21.8391 10.1391 21.8578 10.1766C21.9586 10.3711 21.7266 10.5633 21.5531 10.4273C21.4734 10.3641 21.4664 10.2141 21.5437 10.132C21.593 10.0781 21.7008 10.0617 21.7852 10.0922Z" fill="#528DFF"/>
        <path d="M2.77967 9.832C2.48905 9.93513 2.36717 10.3218 2.5453 10.5773C2.64608 10.7203 2.78905 10.7929 2.96483 10.7906C3.04452 10.7906 3.13592 10.7742 3.17577 10.7531C3.26483 10.7039 3.38905 10.575 3.41014 10.5047L3.42421 10.4531H4.43202H5.43749V10.3008V10.1484H4.42967C3.66327 10.1484 3.42186 10.1414 3.42186 10.1203C3.42186 10.0547 3.29296 9.91169 3.18046 9.85544C3.04686 9.78981 2.9203 9.78278 2.77967 9.832ZM3.09139 10.1578C3.17108 10.2422 3.17108 10.357 3.09139 10.4343C2.96249 10.5633 2.75389 10.4789 2.75858 10.3008C2.76327 10.1203 2.97186 10.0289 3.09139 10.1578Z" fill="#528DFF"/>
        <path d="M18.4922 11.2031V11.3437H20.5617C22.8914 11.3437 22.7906 11.3367 22.9641 11.5125C23.0789 11.6273 23.107 11.693 23.0555 11.7234C22.8938 11.8125 22.7812 11.9953 22.7812 12.1687C22.7812 12.5695 23.2102 12.8039 23.5523 12.593C23.7609 12.4617 23.843 12.143 23.7188 11.9414C23.6484 11.8266 23.5594 11.7469 23.468 11.7164C23.4211 11.7023 23.3906 11.6766 23.3906 11.6508C23.3906 11.5711 23.2148 11.3156 23.1023 11.2336C22.8539 11.0508 23.0133 11.0625 20.625 11.0625H18.4922V11.2031ZM23.4258 12.0445C23.482 12.1055 23.4891 12.1266 23.4773 12.2039C23.4352 12.4547 23.0859 12.4219 23.0859 12.1664C23.0859 11.9859 23.2945 11.9109 23.4258 12.0445Z" fill="#528DFF"/>
        <path d="M1.20464 11.2008C0.97495 11.257 0.714794 11.4844 0.639794 11.6953C0.606981 11.7891 0.583544 11.8172 0.508544 11.85C0.304638 11.9414 0.175731 12.2062 0.231981 12.4101C0.292919 12.6351 0.452294 12.7734 0.670263 12.7922C0.977294 12.818 1.2187 12.593 1.2187 12.2789C1.2187 12.1547 1.11089 11.9601 1.00542 11.8898C0.953856 11.857 0.914013 11.8148 0.914013 11.7984C0.914013 11.7469 1.07808 11.5805 1.1812 11.5242L1.27729 11.4726L3.35854 11.4656L5.43745 11.4586V11.3203V11.1797L3.35854 11.182C2.21245 11.1844 1.24448 11.1914 1.20464 11.2008ZM0.817919 12.1289C0.892919 12.1664 0.914013 12.2062 0.914013 12.3141C0.914013 12.4851 0.681981 12.5672 0.569481 12.4336C0.494481 12.3469 0.499169 12.2461 0.583544 12.1617C0.660888 12.0867 0.719481 12.0773 0.817919 12.1289Z" fill="#528DFF"/>
        <path d="M3.63516 12.0023C3.46406 12.0703 3.32812 12.2695 3.32812 12.4547C3.32812 12.6609 3.45 12.8555 3.62344 12.9281C3.73125 12.9727 3.93047 12.968 4.04297 12.9164C4.14844 12.8695 4.25859 12.7523 4.27969 12.6656L4.29375 12.6094H4.86563H5.4375V12.4687V12.3281H4.87969H4.32188L4.24219 12.2039C4.13672 12.0469 4.00547 11.9766 3.82031 11.9789C3.75 11.9789 3.66563 11.9906 3.63516 12.0023ZM3.97031 12.3281C4.02422 12.382 4.03828 12.5086 3.99609 12.5766C3.97734 12.6023 3.93047 12.6398 3.89062 12.6562C3.73359 12.7219 3.58125 12.5625 3.63984 12.3914C3.68438 12.2625 3.86953 12.225 3.97031 12.3281Z" fill="#528DFF"/>
        <path d="M19.9477 12.0258C19.8492 12.0773 19.7109 12.2344 19.7109 12.2977C19.7109 12.3211 19.5984 12.3281 19.1016 12.3281H18.4922V12.4688V12.6094H19.0969L19.6992 12.6117L19.7484 12.7102C19.9031 13.0242 20.4023 13.0453 20.5945 12.743C20.6859 12.6 20.6977 12.3797 20.6203 12.2344C20.5336 12.0727 20.4 11.9906 20.2078 11.9813C20.0812 11.9766 20.0297 11.9836 19.9477 12.0258ZM20.2711 12.293C20.3648 12.3398 20.4047 12.4477 20.3672 12.5391C20.2781 12.7547 19.9922 12.6938 19.9922 12.4617C19.9922 12.2953 20.1234 12.2156 20.2711 12.293Z" fill="#528DFF"/>
        <path d="M2.26394 12.2578C1.87019 12.3774 1.78582 12.9211 2.13035 13.1484C2.1866 13.1883 2.24754 13.2188 2.2616 13.2188C2.27801 13.2188 2.29676 13.2492 2.30379 13.2844C2.32723 13.4016 2.50066 13.6313 2.62723 13.7109C2.86629 13.8656 2.81707 13.8609 4.19051 13.8656L5.43738 13.868V13.7203V13.5703H4.22566C3.29988 13.568 2.99051 13.5609 2.92723 13.5375C2.80769 13.4953 2.68582 13.3969 2.63426 13.2984C2.59207 13.2211 2.59207 13.2141 2.62957 13.193C2.72332 13.1414 2.81238 13.0477 2.85691 12.9539C3.04207 12.5719 2.67176 12.1359 2.26394 12.2578ZM2.54285 12.5977C2.62723 12.6797 2.62488 12.8227 2.54051 12.8883C2.36473 13.0266 2.12801 12.8414 2.23113 12.6492C2.29676 12.525 2.44676 12.4992 2.54285 12.5977Z" fill="#528DFF"/>
        <path d="M21.3586 12.3047C20.9695 12.3961 20.8453 12.8906 21.143 13.1578C21.1922 13.2047 21.2461 13.2422 21.2578 13.2422C21.3 13.2422 21.2836 13.3031 21.2133 13.3992C21.1711 13.4555 21.0961 13.5187 21.0211 13.5562L20.8969 13.6172H19.6945H18.4922V13.7695V13.9219H19.6711C20.9859 13.9219 21.0258 13.9172 21.2531 13.7672C21.3844 13.6805 21.5039 13.5328 21.5625 13.3828C21.5883 13.3148 21.6258 13.2773 21.7031 13.2352C21.825 13.1719 21.9469 13.0078 21.968 12.8789C22.0078 12.6398 21.8508 12.3844 21.6258 12.3164C21.4969 12.2789 21.4711 12.2766 21.3586 12.3047ZM21.6141 12.6562C21.675 12.7195 21.6844 12.7406 21.6727 12.8156C21.6328 13.0594 21.2812 13.0383 21.2812 12.7922C21.2812 12.5977 21.4758 12.5203 21.6141 12.6562Z" fill="#528DFF"/>
        <path d="M21.5555 14.6812C21.4313 14.7164 21.2789 14.8453 21.232 14.9555L21.2063 15.0234H19.8492H18.4922V15.1641V15.3047H19.8516H21.2109L21.2414 15.382C21.2836 15.4781 21.4172 15.5953 21.5273 15.6328C21.8977 15.7547 22.275 15.4055 22.1719 15.0352C22.0969 14.768 21.8203 14.6109 21.5555 14.6812ZM21.8227 15.0211C21.907 15.1078 21.9117 15.2062 21.8344 15.2953C21.7172 15.4336 21.4922 15.3469 21.4922 15.1641C21.4922 14.9719 21.6891 14.8875 21.8227 15.0211Z" fill="#528DFF"/>
        <path d="M2.01328 14.7187C1.81172 14.8266 1.70156 15.0609 1.75781 15.2742C1.85156 15.6516 2.31328 15.7828 2.59453 15.5109C2.63437 15.4711 2.68125 15.4078 2.69765 15.3726L2.72343 15.3047H4.08047H5.4375V15.1641V15.0234H4.08047H2.72343L2.69531 14.9531C2.65781 14.8617 2.54062 14.7445 2.44453 14.7047C2.33437 14.6578 2.11406 14.6648 2.01328 14.7187ZM2.39531 15.0281C2.4539 15.1055 2.44922 15.2391 2.38593 15.2976C2.30625 15.368 2.25703 15.3773 2.16797 15.3422C2.02265 15.2812 1.99453 15.1336 2.10937 15.0187C2.17265 14.9578 2.19375 14.9484 2.26875 14.9625C2.31797 14.9695 2.37187 14.9976 2.39531 15.0281Z" fill="#528DFF"/>
        <path d="M3.4991 15.9961C3.25769 16.0711 3.07488 16.2352 2.97175 16.4719C2.92722 16.5703 2.89675 16.6031 2.81238 16.6453C2.53113 16.7883 2.46785 17.1727 2.68816 17.4164C2.79597 17.5359 2.93894 17.5875 3.10535 17.5711C3.26941 17.5547 3.38425 17.4844 3.47097 17.3461C3.52722 17.2594 3.53894 17.2148 3.53894 17.093C3.53894 16.8773 3.45691 16.7391 3.26707 16.6266C3.22488 16.6031 3.22722 16.5961 3.28816 16.5047C3.37019 16.3781 3.49675 16.2961 3.65378 16.2656C3.7241 16.2516 4.14363 16.2422 4.60769 16.2422H5.43738V16.1016V15.9609L4.51863 15.9633C3.82488 15.9633 3.5741 15.9727 3.4991 15.9961ZM3.18972 16.943C3.26472 17.0203 3.2741 17.0789 3.22253 17.1773C3.14753 17.325 2.91785 17.3109 2.86863 17.1563C2.79832 16.9406 3.03035 16.7859 3.18972 16.943Z" fill="#528DFF"/>
        <path d="M18.4922 16.3101V16.4508L19.2609 16.4578C20.0953 16.4648 20.0766 16.4625 20.2477 16.6078C20.3414 16.6851 20.4094 16.8094 20.3672 16.8234C20.3531 16.8281 20.3039 16.8656 20.2594 16.9055C19.9828 17.1469 20.0297 17.5687 20.3508 17.7305C20.5453 17.8265 20.7492 17.8008 20.9062 17.6578C21.1617 17.4281 21.1102 17.0133 20.8078 16.8515C20.7187 16.8047 20.6906 16.7742 20.6484 16.6711C20.5781 16.5023 20.4117 16.3312 20.2383 16.2492L20.0977 16.1836L19.2961 16.1765L18.4922 16.1695V16.3101ZM20.707 17.1398C20.8453 17.257 20.7586 17.4844 20.5805 17.4844C20.4867 17.482 20.4352 17.4515 20.3953 17.3742C20.3508 17.2922 20.3625 17.2265 20.4352 17.1539C20.5195 17.0695 20.6203 17.0648 20.707 17.1398Z" fill="#528DFF"/>
        <path d="M7.39905 18.7172C7.38968 18.7266 7.38265 19.0055 7.38265 19.3359V19.9383L7.27015 20.0086C7.01233 20.168 6.95843 20.5148 7.15061 20.7516C7.30061 20.932 7.53968 20.9766 7.75999 20.8641C8.00608 20.7398 8.10452 20.4445 7.9803 20.2055C7.93577 20.1187 7.80452 19.9922 7.74124 19.9781L7.68733 19.9641L7.68265 19.3383L7.67561 18.7148L7.54671 18.7078C7.47405 18.7031 7.40843 18.7078 7.39905 18.7172ZM7.62405 20.2547C7.81155 20.3531 7.74593 20.625 7.53499 20.625C7.42015 20.625 7.33577 20.5406 7.33577 20.4258C7.33577 20.2711 7.48811 20.182 7.62405 20.2547Z" fill="#528DFF"/>
        <path d="M8.85229 18.7195C8.84761 18.7289 8.84058 19.2938 8.84058 19.9734C8.83823 21.5508 8.84058 21.4453 8.80542 21.4453C8.75151 21.4453 8.60151 21.5883 8.54995 21.6867C8.51714 21.7547 8.50073 21.8273 8.50073 21.9188C8.50542 22.3477 9.00933 22.5633 9.33042 22.2727C9.57886 22.0477 9.52964 21.6234 9.23901 21.4805L9.14292 21.4336L9.13589 20.0742L9.12886 18.7148L8.99526 18.7078C8.92261 18.7031 8.85933 18.7102 8.85229 18.7195ZM9.08667 21.7242C9.13354 21.7266 9.19448 21.8391 9.19214 21.9188C9.19214 21.9586 9.1687 22.0148 9.14058 22.043C9.00933 22.1836 8.78901 22.0852 8.78901 21.8883C8.78901 21.8109 8.9062 21.7125 8.98823 21.7172C9.02808 21.7195 9.07261 21.7242 9.08667 21.7242Z" fill="#528DFF"/>
        <path d="M10.0005 18.7172C9.99116 18.7266 9.98413 19.3078 9.98413 20.0063C9.98413 21.2344 9.98647 21.2836 10.0333 21.4078C10.1154 21.6281 10.3005 21.818 10.5091 21.893C10.5701 21.9164 10.6099 21.9492 10.6404 22.0078C10.7998 22.3195 11.1654 22.4039 11.4232 22.1906C11.6505 22.0031 11.6623 21.6656 11.449 21.457C11.2193 21.2344 10.863 21.2695 10.6896 21.532L10.6216 21.6328L10.5091 21.5578C10.4341 21.5063 10.3755 21.443 10.3357 21.3633L10.2771 21.2485L10.2654 19.9805L10.2537 18.7149L10.1365 18.7078C10.0708 18.7031 10.0099 18.7078 10.0005 18.7172ZM11.238 21.668C11.3646 21.7922 11.2755 22.0078 11.0974 22.0078C10.9005 22.0078 10.8279 21.7641 10.9896 21.6399C11.0529 21.5906 11.1748 21.6047 11.238 21.668Z" fill="#528DFF"/>
        <path d="M11.5475 18.7172C11.5381 18.7266 11.5311 19.0219 11.5311 19.3711V20.0086L11.4303 20.0742C11.0928 20.2852 11.1163 20.7797 11.4702 20.9438C11.6764 21.0399 11.878 21.0047 12.0374 20.8477C12.2647 20.618 12.2178 20.2242 11.9413 20.0696L11.8475 20.018L11.8358 19.3664L11.8241 18.7149L11.6952 18.7078C11.6225 18.7031 11.5569 18.7078 11.5475 18.7172ZM11.8241 20.3555C11.9506 20.4797 11.8616 20.6953 11.6835 20.6953C11.5686 20.6953 11.4842 20.611 11.4842 20.4961C11.4842 20.3813 11.5686 20.2969 11.6835 20.2969C11.742 20.2969 11.7866 20.3156 11.8241 20.3555Z" fill="#528DFF"/>
        <path d="M12.8132 18.7172C12.8039 18.7266 12.7968 19.6852 12.7968 20.8477V22.9617L12.7429 23.0648C12.6937 23.1539 12.5203 23.3203 12.471 23.3203C12.4617 23.3203 12.4218 23.2734 12.382 23.2195C12.2789 23.0719 12.1359 23.0086 11.9414 23.0203C11.8218 23.0273 11.7703 23.0438 11.6906 23.0977C11.414 23.2945 11.414 23.7211 11.6906 23.918C11.8242 24.0094 12.0375 24.0281 12.1945 23.9578C12.2976 23.9109 12.4453 23.7492 12.4453 23.6813C12.4453 23.6648 12.5226 23.6133 12.6187 23.5688C12.8156 23.4727 12.9328 23.3555 13.0289 23.1563L13.0898 23.0273V20.8711V18.7148L12.9609 18.7078C12.8882 18.7031 12.8226 18.7078 12.8132 18.7172ZM12.0679 23.332C12.1054 23.3508 12.1476 23.3977 12.164 23.4375C12.2296 23.5945 12.0609 23.7609 11.9039 23.6953C11.8007 23.6508 11.7492 23.5359 11.789 23.4375C11.8171 23.3695 11.9062 23.2992 11.9718 23.2969C11.9882 23.2969 12.0328 23.3133 12.0679 23.332Z" fill="#528DFF"/>
        <path d="M13.7505 18.7172C13.7411 18.7266 13.7341 19.3406 13.7341 20.0836V21.4336L13.6661 21.4641C13.5208 21.5273 13.4153 21.6773 13.3919 21.8484C13.3474 22.1625 13.6099 22.4273 13.9333 22.4016C14.3669 22.3664 14.538 21.8273 14.2099 21.5391C14.1513 21.4875 14.088 21.4453 14.0716 21.4453C14.0458 21.4453 14.0388 21.2086 14.0341 20.0789L14.0271 18.7148L13.8982 18.7078C13.8255 18.7031 13.7599 18.7078 13.7505 18.7172ZM14.0317 21.7828C14.0997 21.8625 14.0997 21.9656 14.0317 22.043C13.9146 22.1789 13.6872 22.0898 13.6872 21.907C13.6896 21.7219 13.9099 21.6422 14.0317 21.7828Z" fill="#528DFF"/>
        <path d="M14.688 18.7172C14.6787 18.7266 14.6716 19.3008 14.6716 19.9945C14.6716 21.2109 14.674 21.2602 14.7208 21.3844C14.8029 21.6047 14.988 21.7945 15.1966 21.8695C15.2576 21.893 15.2974 21.9258 15.3279 21.9844C15.5318 22.3828 16.0521 22.3875 16.2443 21.9938C16.3123 21.8508 16.2982 21.6492 16.2091 21.5156C16.1412 21.4149 15.9912 21.3164 15.8669 21.293C15.6865 21.2602 15.4732 21.3563 15.3677 21.5203L15.3091 21.6094L15.199 21.5344C15.124 21.4828 15.0654 21.4172 15.0255 21.3399L14.9646 21.2227L14.9529 19.9688L14.9412 18.7149L14.824 18.7078C14.7583 18.7031 14.6974 18.7078 14.688 18.7172ZM15.9255 21.6445C16.1107 21.8274 15.8388 22.1039 15.6466 21.9258C15.5623 21.8484 15.5646 21.743 15.6537 21.6539C15.7427 21.5672 15.8458 21.5625 15.9255 21.6445Z" fill="#528DFF"/>
        <path d="M16.0708 18.7196C16.0615 18.7266 16.0544 18.8906 16.0544 19.0781V19.425L15.9841 19.4531C15.9044 19.486 15.7568 19.6406 15.7263 19.725C15.6912 19.8141 15.6982 20.0063 15.738 20.1047C15.9021 20.4914 16.4552 20.4985 16.6498 20.1164C16.6966 20.025 16.699 19.8071 16.6544 19.7016C16.6169 19.6125 16.4927 19.4883 16.4013 19.4508L16.3357 19.425V19.0641V18.7031H16.2115C16.1412 18.7031 16.0779 18.7102 16.0708 18.7196ZM16.3005 19.725C16.3591 19.7485 16.4107 19.8703 16.3943 19.9477C16.3849 19.9852 16.3521 20.0367 16.3193 20.0625C16.1248 20.2149 15.8857 19.95 16.0544 19.7696C16.1083 19.711 16.2138 19.6922 16.3005 19.725Z" fill="#528DFF"/>
    </g>
    <defs>
        <clipPath id="clip0_6_2250">
            <rect width="24" height="24" fill="white"/>
        </clipPath>
    </defs>
</svg>
