<svg xmlns="http://www.w3.org/2000/svg" width="18" height="18" viewBox="0 0 18 18" fill="none">
    <g clip-path="url(#clip0_1_241)">
        <path d="M9 0C6.61359 0 4.32281 0.948797 2.63672 2.63602C0.948885 4.3239 0.000467536 6.613 0 9C0 11.386 0.949219 13.6768 2.63672 15.364C4.32281 17.0512 6.61359 18 9 18C11.3864 18 13.6772 17.0512 15.3633 15.364C17.0508 13.6768 18 11.386 18 9C18 6.61402 17.0508 4.32323 15.3633 2.63602C13.6772 0.948797 11.3864 0 9 0Z" fill="url(#paint0_linear_1_241)"/>
        <path d="M4.07391 8.90503C6.69798 7.76203 8.44735 7.00842 9.32204 6.64434C11.8224 5.6047 12.3413 5.42414 12.6802 5.41802C12.7547 5.41683 12.9206 5.43525 13.0289 5.52279C13.1189 5.59662 13.1442 5.69646 13.1569 5.76656C13.1681 5.83659 13.1836 5.9962 13.1709 6.1208C13.0359 7.54392 12.4495 10.9974 12.1514 12.5914C12.0263 13.2658 11.7774 13.4919 11.5369 13.514C11.0138 13.5621 10.6172 13.1686 10.1109 12.8369C9.31923 12.3176 8.87204 11.9944 8.10282 11.4877C7.21407 10.9022 7.79063 10.5803 8.29688 10.0544C8.42907 9.91669 10.7325 7.82208 10.7761 7.63209C10.7817 7.60833 10.7874 7.51973 10.7339 7.47305C10.6819 7.42622 10.6045 7.44225 10.5483 7.45491C10.4681 7.4729 9.20391 8.30934 6.75141 9.96408C6.39282 10.2107 6.06798 10.331 5.77548 10.3246C5.45485 10.3177 4.8361 10.143 4.37626 9.99361C3.81376 9.81037 3.36516 9.71348 3.40454 9.40228C3.42423 9.24028 3.64782 9.07448 4.07391 8.90503Z" fill="white"/>
    </g>
    <defs>
        <linearGradient id="paint0_linear_1_241" x1="9" y1="0" x2="9" y2="18" gradientUnits="userSpaceOnUse">
            <stop stop-color="#2AABEE"/>
            <stop offset="1" stop-color="#229ED9"/>
        </linearGradient>
        <clipPath id="clip0_1_241">
            <rect width="18" height="18" fill="white"/>
        </clipPath>
    </defs>
</svg>
