<svg xmlns="http://www.w3.org/2000/svg" width="25" height="25" viewBox="0 0 25 25" fill="none">
    <g clip-path="url(#clip0_2_657)">
        <path d="M12.5 0C9.18555 0 6.00391 1.31777 3.66211 3.66113C1.3179 6.00542 0.000649355 9.18473 0 12.5C0 15.8139 1.31836 18.9955 3.66211 21.3389C6.00391 23.6822 9.18555 25 12.5 25C15.8145 25 18.9961 23.6822 21.3379 21.3389C23.6816 18.9955 25 15.8139 25 12.5C25 9.18613 23.6816 6.00449 21.3379 3.66113C18.9961 1.31777 15.8145 0 12.5 0Z" fill="url(#paint0_linear_2_657)"/>
        <path d="M5.65825 12.368C9.30278 10.7805 11.7325 9.73379 12.9473 9.22812C16.42 7.78418 17.1407 7.5334 17.6114 7.5249C17.7149 7.52324 17.9454 7.54883 18.0958 7.67041C18.2208 7.77295 18.2559 7.91162 18.2735 8.00898C18.2891 8.10625 18.3106 8.32793 18.293 8.50097C18.1055 10.4775 17.2911 15.274 16.877 17.4879C16.7032 18.4246 16.3575 18.7387 16.0235 18.7693C15.2969 18.8361 14.7461 18.2896 14.043 17.8289C12.9434 17.1076 12.3223 16.6588 11.254 15.9551C10.0196 15.1418 10.8204 14.6947 11.5235 13.9643C11.7071 13.773 14.9063 10.8639 14.9668 10.6C14.9747 10.567 14.9825 10.4439 14.9083 10.3791C14.836 10.3141 14.7286 10.3363 14.6504 10.3539C14.5391 10.3789 12.7833 11.5406 9.377 13.8389C8.87895 14.1814 8.42778 14.3484 8.02153 14.3396C7.57622 14.3301 6.71685 14.0873 6.07817 13.8799C5.29692 13.6254 4.67388 13.4908 4.72856 13.0586C4.75591 12.8336 5.06645 12.6033 5.65825 12.368Z" fill="white"/>
    </g>
    <defs>
        <linearGradient id="paint0_linear_2_657" x1="12.5" y1="0" x2="12.5" y2="25" gradientUnits="userSpaceOnUse">
            <stop stop-color="#2AABEE"/>
            <stop offset="1" stop-color="#229ED9"/>
        </linearGradient>
        <clipPath id="clip0_2_657">
            <rect width="25" height="25" fill="white"/>
        </clipPath>
    </defs>
</svg>
